<svg xmlns="http://www.w3.org/2000/svg" viewBox="0 0 522 144" role="img" aria-label="Bussin">
  <rect x="8" y="8" width="128" height="128" fill="#070707"/>
  <g transform="translate(22.1 22.1) scale(1.5600)">

  <g fill="#d6ff00">
    <rect x="10" y="7" width="44" height="46" rx="8"/>
    <rect x="5" y="19" width="7" height="9" rx="3.5"/>
    <rect x="52" y="19" width="7" height="9" rx="3.5"/>
    <rect x="15" y="49" width="9" height="10" rx="3.5"/>
    <rect x="40" y="49" width="9" height="10" rx="3.5"/>
  </g>
  <rect x="16" y="13" width="32" height="15" rx="3" fill="#070707"/>
  <circle cx="20.5" cy="40" r="4" fill="#070707"/>
  <circle cx="43.5" cy="40" r="4" fill="#070707"/>
  <rect x="26" y="34.5" width="12" height="4" rx="2" fill="#070707"/>

  </g>
  <g fill="#070707" transform="translate(170.0 122.0)">
    <path transform="translate(0.0 0) scale(0.056818 -0.056818)" d="M78 0V1760H555Q747 1760 834.5 1666.5Q922 1573 922 1358V1281Q922 1157 877.5 1080.0Q833 1003 742 979Q861 949 901.5 838.5Q942 728 942 569Q942 398 910.0 270.0Q878 142 794.0 71.0Q710 0 555 0ZM422 1097H494Q543 1097 557.0 1135.0Q571 1173 571 1226V1403Q571 1488 496 1488H422ZM457 310Q594 310 594 440V660Q594 735 571.5 778.5Q549 822 487 822H422V312Q444 310 457 310Z"/>
    <path transform="translate(54.3 0) scale(0.056818 -0.056818)" d="M485 -16Q265 -16 161.0 107.5Q57 231 57 471V1760H399V485Q399 441 404.0 400.5Q409 360 427.0 334.0Q445 308 485 308Q526 308 544.0 333.5Q562 359 566.5 400.0Q571 441 571 485V1760H913V471Q913 231 809.0 107.5Q705 -16 485 -16Z"/>
    <path transform="translate(108.0 0) scale(0.056818 -0.056818)" d="M496 -16Q255 -16 148.5 104.0Q42 224 42 486V658H390V438Q390 377 408.5 342.5Q427 308 473 308Q521 308 539.5 336.0Q558 364 558 428Q558 509 542.0 563.5Q526 618 486.5 667.5Q447 717 377 783L219 933Q42 1100 42 1315Q42 1540 146.5 1658.0Q251 1776 449 1776Q691 1776 792.5 1647.0Q894 1518 894 1255H536V1376Q536 1412 515.5 1432.0Q495 1452 460 1452Q418 1452 398.5 1428.5Q379 1405 379 1368Q379 1331 399.0 1288.0Q419 1245 478 1189L681 994Q742 936 793.0 871.5Q844 807 875.0 721.5Q906 636 906 513Q906 265 814.5 124.5Q723 -16 496 -16Z"/>
    <path transform="translate(160.3 0) scale(0.056818 -0.056818)" d="M496 -16Q255 -16 148.5 104.0Q42 224 42 486V658H390V438Q390 377 408.5 342.5Q427 308 473 308Q521 308 539.5 336.0Q558 364 558 428Q558 509 542.0 563.5Q526 618 486.5 667.5Q447 717 377 783L219 933Q42 1100 42 1315Q42 1540 146.5 1658.0Q251 1776 449 1776Q691 1776 792.5 1647.0Q894 1518 894 1255H536V1376Q536 1412 515.5 1432.0Q495 1452 460 1452Q418 1452 398.5 1428.5Q379 1405 379 1368Q379 1331 399.0 1288.0Q419 1245 478 1189L681 994Q742 936 793.0 871.5Q844 807 875.0 721.5Q906 636 906 513Q906 265 814.5 124.5Q723 -16 496 -16Z"/>
    <path transform="translate(212.6 0) scale(0.056818 -0.056818)" d="M62 0V1760H402V0Z"/>
    <path transform="translate(237.6 0) scale(0.056818 -0.056818)" d="M78 0V1760H440L602 917V1760H942V0H598L422 880V0Z"/>
  </g>
  <circle cx="502.5" cy="114.0" r="11" fill="#f12647"/>
</svg>
